<?xml version="1.0" encoding="UTF-8"?>
<svg xmlns="http://www.w3.org/2000/svg" width="512" height="512" viewBox="0 0 512 512">
  <!-- Derived from the actual generated icon silhouette (alpha thresholded). -->
  <g fill="#000000" fill-rule="evenodd">
    <path d="M 396.0 260.0 L 391.0 250.0 L 380.0 243.0 L 365.0 242.0 L 354.0 245.0 L 350.0 236.0 L 335.0 226.0 L 304.0 223.0 L 326.0 230.0 L 332.0 235.0 L 336.0 244.0 L 333.0 254.0 L 324.0 263.0 L 311.0 270.0 L 285.0 278.0 L 258.0 282.0 L 211.0 281.0 L 186.0 276.0 L 174.0 270.0 L 172.0 277.0 L 176.0 286.0 L 202.0 292.0 L 270.0 293.0 L 323.0 279.0 L 340.0 269.0 L 356.0 252.0 L 374.0 249.0 L 385.0 260.0 L 381.0 277.0 L 358.0 301.0 L 334.0 314.0 L 339.0 315.0 L 365.0 306.0 L 385.0 291.0 L 394.0 278.0 Z"/>
    <path d="M 112.0 341.0 L 112.0 347.0 L 117.0 354.0 L 133.0 362.0 L 151.0 367.0 L 186.0 372.0 L 227.0 373.0 L 288.0 365.0 L 292.0 373.0 L 300.0 376.0 L 317.0 389.0 L 324.0 388.0 L 322.0 380.0 L 310.0 371.0 L 310.0 368.0 L 324.0 356.0 L 325.0 351.0 L 323.0 349.0 L 317.0 350.0 L 292.0 364.0 L 221.0 364.0 L 175.0 359.0 L 147.0 352.0 L 132.0 342.0 L 133.0 335.0 L 139.0 329.0 L 157.0 320.0 L 146.0 321.0 L 128.0 327.0 L 117.0 334.0 Z"/>
    <path d="M 271.0 62.0 L 271.0 83.0 L 263.0 99.0 L 247.0 116.0 L 220.0 137.0 L 206.0 151.0 L 201.0 158.0 L 197.0 168.0 L 196.0 180.0 L 201.0 196.0 L 216.0 213.0 L 232.0 222.0 L 234.0 221.0 L 225.0 213.0 L 218.0 201.0 L 215.0 190.0 L 216.0 176.0 L 222.0 163.0 L 228.0 155.0 L 266.0 118.0 L 274.0 105.0 L 277.0 96.0 L 278.0 82.0 L 274.0 66.0 Z"/>
    <path d="M 173.0 310.0 L 181.0 317.0 L 193.0 323.0 L 217.0 329.0 L 251.0 329.0 L 252.0 328.0 L 267.0 327.0 L 314.0 316.0 L 312.0 314.0 L 299.0 311.0 L 293.0 311.0 L 292.0 310.0 L 233.0 311.0 L 232.0 310.0 L 215.0 310.0 L 214.0 309.0 L 203.0 309.0 L 202.0 308.0 L 176.0 308.0 Z"/>
    <path d="M 309.0 128.0 L 298.0 129.0 L 278.0 135.0 L 264.0 142.0 L 257.0 147.0 L 245.0 160.0 L 241.0 170.0 L 241.0 182.0 L 243.0 189.0 L 247.0 197.0 L 255.0 208.0 L 258.0 216.0 L 258.0 227.0 L 254.0 237.0 L 259.0 234.0 L 269.0 224.0 L 273.0 217.0 L 275.0 210.0 L 274.0 200.0 L 269.0 191.0 L 261.0 181.0 L 259.0 175.0 L 259.0 170.0 L 263.0 161.0 L 280.0 144.0 L 291.0 137.0 L 309.0 129.0 Z"/>
    <path d="M 144.0 248.0 L 149.0 253.0 L 173.0 259.0 L 207.0 263.0 L 229.0 263.0 L 275.0 256.0 L 296.0 249.0 L 307.0 242.0 L 281.0 249.0 L 244.0 254.0 L 206.0 254.0 L 189.0 252.0 L 172.0 248.0 L 167.0 244.0 L 167.0 242.0 L 171.0 238.0 L 183.0 232.0 L 207.0 224.0 L 198.0 223.0 L 176.0 227.0 L 159.0 233.0 L 149.0 239.0 L 145.0 243.0 Z"/>
    <path d="M 375.0 330.0 L 371.0 329.0 L 370.0 328.0 L 367.0 328.0 L 366.0 329.0 L 363.0 329.0 L 359.0 332.0 L 357.0 336.0 L 357.0 338.0 L 355.0 341.0 L 355.0 343.0 L 353.0 346.0 L 353.0 348.0 L 351.0 351.0 L 351.0 353.0 L 349.0 356.0 L 349.0 358.0 L 347.0 361.0 L 347.0 363.0 L 345.0 366.0 L 345.0 368.0 L 343.0 371.0 L 343.0 373.0 L 341.0 376.0 L 341.0 378.0 L 339.0 381.0 L 339.0 383.0 L 336.0 389.0 L 336.0 391.0 L 333.0 396.0 L 332.0 402.0 L 334.0 404.0 L 340.0 405.0 L 341.0 404.0 L 343.0 404.0 L 347.0 402.0 L 347.0 401.0 L 349.0 399.0 L 352.0 393.0 L 352.0 391.0 L 355.0 386.0 L 355.0 384.0 L 357.0 381.0 L 357.0 379.0 L 359.0 376.0 L 359.0 374.0 L 361.0 371.0 L 361.0 369.0 L 364.0 364.0 L 364.0 362.0 L 366.0 359.0 L 366.0 357.0 L 368.0 354.0 L 368.0 352.0 L 370.0 349.0 L 370.0 347.0 L 372.0 344.0 L 372.0 342.0 L 375.0 337.0 L 375.0 335.0 L 376.0 334.0 Z"/>
    <path d="M 386.0 342.0 L 385.0 343.0 L 385.0 346.0 L 388.0 350.0 L 388.0 351.0 L 396.0 359.0 L 397.0 359.0 L 400.0 362.0 L 401.0 362.0 L 405.0 366.0 L 405.0 368.0 L 402.0 371.0 L 401.0 371.0 L 399.0 373.0 L 396.0 374.0 L 388.0 381.0 L 388.0 382.0 L 386.0 385.0 L 386.0 389.0 L 387.0 389.0 L 388.0 390.0 L 392.0 390.0 L 393.0 389.0 L 395.0 389.0 L 396.0 388.0 L 401.0 386.0 L 403.0 384.0 L 404.0 384.0 L 406.0 382.0 L 407.0 382.0 L 410.0 379.0 L 411.0 379.0 L 420.0 370.0 L 420.0 369.0 L 422.0 367.0 L 422.0 365.0 L 421.0 364.0 L 421.0 363.0 L 420.0 363.0 L 417.0 361.0 L 415.0 361.0 L 411.0 358.0 L 410.0 358.0 L 403.0 351.0 L 402.0 351.0 L 393.0 343.0 L 392.0 343.0 L 391.0 342.0 Z"/>
  </g>
</svg>
